<svg xmlns="http://www.w3.org/2000/svg" width="24" height="24" viewBox="0 0 24 24" fill="none"
     stroke-width="2" stroke-linecap="round" stroke-linejoin="round"
     class="icon icon-tabler icons-tabler-outline icon-tabler-robot">
    <path stroke="none" d="M0 0h24v24H0z" fill="none"/>
    <path d="M6 6a2 2 0 0 1 2 -2h8a2 2 0 0 1 2 2v4a2 2 0 0 1 -2 2h-8a2 2 0 0 1 -2 -2l0 -4" stroke="#002D62"/>
    <path d="M12 2v2" stroke="#CE1126"/>
    <path d="M9 12v9" stroke="#CE1126"/>
    <path d="M15 12v9" stroke="#002D62"/>
    <path d="M5 16l4 -2" stroke="#002D62"/>
    <path d="M15 14l4 2" stroke="#CE1126"/>
    <path d="M9 18h6" stroke="#FFFFFF"/>
    <path d="M10 8v.01" stroke="#FFFFFF"/>
    <path d="M14 8v.01" stroke="#FFFFFF"/>
</svg>