<svg xmlns="http://www.w3.org/2000/svg" width="1024" height="1024" viewBox="-10 -10 44 44" fill="none" stroke-width="2" stroke-linecap="round" stroke-linejoin="round">
    <!-- Blue elements (Left side & Top center) -->
    <path d="M3 7h2c2 0 5-1 7-2" stroke="#002D62"/>
    <path d="M12 3v9" stroke="#002D62"/>
    <path d="m2 16 3-8 3 8c-.87.65-1.92 1-3 1s-2.13-.35-3-1Z" stroke="#002D62"/>
    <path d="M7 21h5" stroke="#002D62"/>

    <!-- Red elements (Right side & Bottom center) -->
    <path d="M12 5c2 1 5 2 7 2h2" stroke="#CE1126"/>
    <path d="M12 12v9" stroke="#CE1126"/>
    <path d="m16 16 3-8 3 8c-.87.65-1.92 1-3 1s-2.13-.35-3-1Z" stroke="#CE1126"/>
    <path d="M12 21h5" stroke="#CE1126"/>
</svg>